# xmcd
#
# Track frame offsets:
#	150
#	16434
#	35346
#	51322
#	69229
#	85398
#	97977
#	112910
#	130447
#	148141
#	166131
#	189509
#	208082
#	226401
#	242004
#
# Disc length: 3442
#
# Revision: 1
# Processed by: cddbd v1.5.1PL0 Copyright (c) Steve Scherf et al.
# Submitted via: EasyCDDAExtractor 4.6.9.1
# Normalized: r0:DSETVAR1,TDELIM( - )
#
DISCID=cc0d700f
DTITLE=Various Artist - Absolute Love 2 CD 1
DYEAR=2000
DGENRE=Ballad
TTITLE0=Westlife - If I let you go
TTITLE1=Melanie C. feat. Lisa Left Eye Lopes - Never be the same again
TTITLE2=Britney Spears - Born to make you happy
TTITLE3=Roxette - Wish I could fly
TTITLE4=Andreas Johnson - The games we play
TTITLE5=Eagle-Eye Cherry - Falling in love again
TTITLE6=Jennifer Paige - Crush
TTITLE7=Backstreet Boys - Show me the meaning of being lonely
TTITLE8=TLC - Dear lie
TTITLE9=Brandy and Monica - The boy is mine
TTITLE10=All Saints - Never ever
TTITLE11=Angie Stone - Life story
TTITLE12=En Vogue - Don't let go (Love)
TTITLE13=Noora - Official
TTITLE14=Jessica Folcker - How will I know (Who you are)
EXTD=
EXTT0=
EXTT1=
EXTT2=
EXTT3=
EXTT4=
EXTT5=
EXTT6=
EXTT7=
EXTT8=
EXTT9=
EXTT10=
EXTT11=
EXTT12=
EXTT13=
EXTT14=
PLAYORDER=
